<svg id="Capa_1" enable-background="new 0 0 512 512" height="512" viewBox="0 0 512 512" width="512" xmlns="http://www.w3.org/2000/svg"><g><g><path d="m313.988 460.452v-.509c0-38.846 18.595-75.163 49.659-98.489 72.112-54.15 140.853-158.969 140.853-242.312 0-102.577-85.219-101.982-197.227-101.982h-102.546c-112.008 0-197.227-.595-197.227 101.982 0 83.344 68.741 188.162 140.853 242.312 31.063 23.326 49.659 59.642 49.659 98.489v.509" fill="#f6e738"/><g fill="#7dbe3b"><path d="m198.02 271.19h115.97v223.65h-115.97z"/><path d="m241.129 271.187v223.653h-43.109v-223.653"/><path d="m313.99 271.19v63.05c-11.69 2.92-24.4 2.4-36.48-2.07-6.7-2.48-13.95-3.84-21.51-3.84-7.57 0-14.81 1.36-21.52 3.83-12.07 4.47-24.77 4.99-36.46 2.09v-63.06z"/></g><path d="m391.27 123.475-32.268 135.683c-1.425 5.99-3.437 11.717-5.967 17.124-13.232 28.285-46.233 40.645-75.521 29.815-6.703-2.479-13.952-3.833-21.518-3.833-7.565 0-14.811 1.354-21.513 3.832-29.288 10.831-62.287-1.526-75.523-29.808-2.531-5.409-4.545-11.138-5.97-17.13l-32.258-135.683c-12.905-54.251 28.236-106.312 83.991-106.312h102.545c55.767 0 96.897 52.061 84.002 106.312z" fill="#9bd069"/><path d="m228.413 307.995c-27.64 7.16-57.12-5.37-69.45-31.71-2.53-5.41-4.54-11.14-5.97-17.13l-32.26-135.68c-12.9-54.25 28.24-106.31 83.99-106.31h27.17c-26.23 0-45.58 52.06-39.51 106.31l15.17 135.68c.68 5.99 1.62 11.72 2.81 17.13 3.61 16.4 10.35 27.44 18.05 31.71z" fill="#7dbe3b"/></g><g><ellipse cx="203.532" cy="138.314" rx="20.836" ry="31.129"/><ellipse cx="308.468" cy="138.314" rx="20.836" ry="31.129"/><path d="m495.828 55.999c-10.064-14.983-24.706-25.824-44.761-33.14-35.77-13.05-84.029-13.199-139.903-13.199-.651 0-108.377 0-108.377 0-56.703.029-105.672-.003-141.858 13.198-20.054 7.316-34.694 18.156-44.758 33.14-10.881 16.202-16.171 36.856-16.171 63.142 0 42.902 17.703 94.271 49.848 144.645 1.431 2.242 3.854 3.466 6.329 3.466 1.381 0 2.778-.381 4.028-1.179 3.492-2.228 4.516-6.865 2.288-10.357-30.627-47.993-47.493-96.496-47.493-136.575 0-43.957 15.75-69.305 51.07-82.19 23.121-8.435 52.853-11.079 87.1-11.908-8.271 5.452-15.732 12.256-22.071 20.279-17.909 22.666-24.348 51.787-17.665 79.895l32.262 135.687c1.529 6.407 3.706 12.654 6.472 18.569 7.183 15.341 19.904 27.197 35.821 33.382.838.326 1.684.625 2.531.916v85.996c-9.001-17.141-21.787-32.387-37.667-44.311-26.489-19.891-52.379-46.565-74.873-77.138-2.455-3.337-7.15-4.052-10.486-1.596-3.336 2.455-4.051 7.149-1.596 10.486 23.349 31.736 50.303 59.484 77.948 80.243 29.219 21.939 46.663 56.516 46.663 92.492v.51c0 .068.008.135.01.203v34.187c0 4.142 3.358 7.5 7.5 7.5s7.5-3.358 7.5-7.5v-177.749c2.425.258 4.86.403 7.3.403 8.184 0 16.398-1.453 24.26-4.361 3.705-1.369 7.526-2.321 11.42-2.857v34.622l-29.191 29.191c-2.929 2.929-2.929 7.678 0 10.606 2.929 2.929 7.678 2.929 10.606 0l26.086-26.084 26.084 26.085c1.465 1.465 3.384 2.197 5.304 2.197 1.919 0 3.839-.732 5.304-2.197 2.929-2.929 2.929-7.678 0-10.606l-29.192-29.192v-34.623c3.892.536 7.709 1.488 11.409 2.857 10.213 3.776 21.019 5.086 31.581 3.959v142.719c0 .043-.002.086-.002.129v.51c0 .013.002.025.002.039v34.349c0 4.142 3.357 7.5 7.5 7.5s7.5-3.358 7.5-7.5v-35.027c.042-35.927 17.477-70.447 46.661-92.361 36.695-27.556 72.92-68.499 99.385-112.33 28.673-47.488 44.464-95.78 44.464-135.979 0-26.288-5.29-46.942-16.172-63.143zm-136.684 299.458c-15.872 11.918-28.653 27.157-37.653 44.288v-85.981c.844-.29 1.686-.589 2.521-.913 15.918-6.187 28.64-18.045 35.823-33.393 2.774-5.934 4.949-12.18 6.463-18.563l29.04-122.12c.958-4.029-1.532-8.073-5.562-9.031-4.037-.958-8.073 1.532-9.032 5.561l-29.042 122.125c-1.278 5.392-3.113 10.665-5.455 15.67-6.604 14.111-18.84 23.784-33.037 27.61-.705.073-1.378.248-2.011.502-9.911 2.256-20.671 1.705-31.086-2.146-7.721-2.857-15.834-4.307-24.113-4.307-8.275 0-16.39 1.449-24.122 4.306-10.394 3.845-21.131 4.402-31.024 2.162-.657-.269-1.359-.449-2.094-.521-14.183-3.829-26.405-13.497-33.006-27.594-2.335-4.993-4.175-10.273-5.467-15.688l-32.26-135.68c-5.614-23.616-.205-48.082 14.842-67.125 15.044-19.04 37.588-29.959 61.852-29.959h.01 102.54c22.178 0 42.68 8.929 57.73 25.143 14.909 16.062 22.534 37.687 20.921 59.329-.308 4.131 2.791 7.729 6.922 8.037 4.137.311 7.729-2.791 8.037-6.922 1.922-25.789-7.148-51.54-24.887-70.649-5.198-5.6-10.944-10.464-17.124-14.557 34.225.831 63.947 3.478 87.057 11.908 35.321 12.887 51.073 38.236 51.073 82.193 0 83.123-70.092 185.429-137.856 236.315z"/><path d="m301.777 232.441c-3.487-2.231-8.128-1.211-10.358 2.278l-10 15.639c-2.231 3.49-1.212 8.128 2.278 10.359 1.251.8 2.65 1.182 4.033 1.182 2.473 0 4.895-1.223 6.325-3.46l10-15.639c2.232-3.489 1.213-8.127-2.278-10.359z"/><path d="m220.583 234.72c-2.232-3.49-6.87-4.509-10.359-2.278-3.49 2.231-4.51 6.87-2.278 10.359l10 15.639c1.432 2.238 3.853 3.46 6.326 3.46 1.383 0 2.782-.382 4.034-1.182 3.49-2.231 4.51-6.87 2.278-10.359z"/></g></g></svg>